<svg width="500" height="500" viewBox="0 0 500 500" fill="none" xmlns="http://www.w3.org/2000/svg">
<g clip-path="url(#clip0_333_2)">
<rect width="500" height="500" rx="40" fill="white"/>
<g clip-path="url(#clip1_333_2)">
<path d="M252.41 147.656C233.763 147.656 215.536 153.322 200.032 163.937C184.528 174.552 172.444 189.64 165.308 207.293C158.172 224.945 156.305 244.369 159.943 263.109C163.581 281.849 172.56 299.063 185.745 312.573C198.93 326.084 215.729 335.285 234.017 339.013C252.305 342.74 271.262 340.827 288.489 333.515C305.716 326.203 320.44 313.821 330.8 297.934C341.159 282.047 346.689 263.369 346.689 244.262C346.689 218.641 336.756 194.068 319.075 175.951C301.394 157.834 277.414 147.656 252.41 147.656ZM251.639 305.989C239.599 305.992 227.829 302.336 217.817 295.485C207.806 288.633 200.001 278.893 195.392 267.497C190.783 256.1 189.575 243.559 191.922 231.459C194.269 219.359 200.065 208.244 208.577 199.519C217.089 190.795 227.934 184.853 239.742 182.445C251.55 180.037 263.789 181.271 274.913 185.992C286.036 190.712 295.543 198.706 302.232 208.964C308.921 219.221 312.491 231.28 312.491 243.617C312.494 251.808 310.921 259.919 307.864 267.487C304.807 275.055 300.325 281.932 294.675 287.725C289.024 293.518 282.315 298.114 274.931 301.251C267.547 304.387 259.632 306.003 251.639 306.005V305.989Z" fill="#333333"/>
<path d="M252.41 186.066C241.13 186.066 230.103 189.445 220.724 195.775C211.345 202.106 204.035 211.104 199.718 221.632C195.402 232.16 194.272 243.744 196.473 254.92C198.673 266.097 204.105 276.363 212.081 284.42C220.058 292.478 230.22 297.965 241.283 300.188C252.346 302.411 263.814 301.27 274.235 296.909C284.657 292.549 293.564 285.164 299.831 275.689C306.098 266.215 309.443 255.075 309.443 243.68C309.443 228.4 303.434 213.745 292.738 202.941C282.042 192.136 267.536 186.066 252.41 186.066ZM230.233 277.671C227.857 277.671 225.534 276.959 223.558 275.625C221.583 274.291 220.043 272.395 219.135 270.177C218.226 267.958 217.989 265.518 218.454 263.164C218.919 260.81 220.064 258.648 221.746 256.951C223.427 255.255 225.569 254.101 227.9 253.634C230.23 253.168 232.646 253.411 234.84 254.332C237.035 255.252 238.91 256.81 240.228 258.808C241.545 260.805 242.247 263.153 242.244 265.553C242.246 267.148 241.937 268.727 241.334 270.201C240.732 271.675 239.847 273.015 238.732 274.143C237.616 275.272 236.291 276.167 234.833 276.778C233.375 277.388 231.812 277.703 230.233 277.703V277.671ZM230.233 233.845C227.857 233.845 225.534 233.133 223.558 231.799C221.583 230.465 220.043 228.569 219.135 226.351C218.226 224.133 217.989 221.692 218.454 219.338C218.919 216.984 220.064 214.822 221.746 213.126C223.427 211.429 225.569 210.275 227.9 209.809C230.23 209.342 232.646 209.585 234.84 210.506C237.035 211.427 238.91 212.984 240.228 214.982C241.545 216.979 242.247 219.327 242.244 221.727C242.248 223.323 241.941 224.903 241.339 226.378C240.737 227.853 239.852 229.193 238.736 230.322C237.62 231.451 236.295 232.346 234.836 232.956C233.376 233.566 231.812 233.879 230.233 233.877V233.845ZM274.284 277.671C271.907 277.674 269.583 276.964 267.605 275.632C265.628 274.3 264.086 272.405 263.175 270.188C262.264 267.97 262.024 265.529 262.487 263.174C262.95 260.819 264.094 258.655 265.775 256.957C267.456 255.259 269.598 254.103 271.929 253.636C274.26 253.168 276.677 253.41 278.872 254.33C281.068 255.25 282.943 256.808 284.262 258.806C285.58 260.804 286.283 263.152 286.279 265.553C286.282 267.146 285.973 268.725 285.371 270.198C284.77 271.67 283.887 273.009 282.773 274.137C281.659 275.266 280.336 276.161 278.879 276.773C277.423 277.385 275.862 277.701 274.284 277.703V277.671ZM274.284 233.845C271.907 233.848 269.583 233.139 267.605 231.807C265.628 230.475 264.086 228.58 263.175 226.362C262.264 224.144 262.024 221.703 262.487 219.348C262.95 216.993 264.094 214.829 265.775 213.131C267.456 211.433 269.598 210.278 271.929 209.81C274.26 209.342 276.677 209.584 278.872 210.504C281.068 211.425 282.943 212.982 284.262 214.98C285.58 216.978 286.283 219.326 286.279 221.727C286.284 223.321 285.976 224.9 285.375 226.374C284.775 227.848 283.892 229.188 282.777 230.316C281.663 231.445 280.339 232.341 278.882 232.951C277.425 233.562 275.862 233.877 274.284 233.877V233.845Z" fill="#333333"/>
<path d="M72.3415 245.389L152.311 241.934V250.082L72.3415 246.09C72.2509 246.09 72.164 246.053 72.1 245.987C72.036 245.921 72 245.832 72 245.739C72 245.646 72.036 245.557 72.1 245.492C72.164 245.426 72.2509 245.389 72.3415 245.389Z" fill="#333333"/>
<path d="M426.948 244.207C427.043 233.559 408.19 232.877 408.19 232.877L351.344 232.623V255.902H410.173C428.82 255.902 426.948 244.207 426.948 244.207ZM389.178 251.728C375.022 251.728 363.548 248.332 363.548 244.127C363.548 239.922 375.022 236.527 389.178 236.527C403.333 236.527 414.791 239.938 414.791 244.127C414.791 248.317 403.302 251.728 389.162 251.728H389.178Z" fill="#333333"/>
<path d="M277.732 267.117C277.381 268.103 276.777 268.974 275.982 269.638C275.188 270.302 274.232 270.735 273.217 270.89C272.17 271.119 271.083 271.072 270.059 270.755C269.034 270.438 268.104 269.86 267.357 269.076L252.04 253.271L243.692 244.656L227.663 228.122C226.726 227.181 226.077 225.982 225.796 224.671C225.515 223.359 225.613 221.993 226.079 220.737C226.415 219.805 227.018 218.998 227.809 218.42C228.6 217.843 229.542 217.522 230.514 217.499C231.567 217.453 232.617 217.637 233.595 218.039C234.573 218.441 235.456 219.052 236.184 219.831L252.135 236.138L260.498 244.688L276.148 260.688C276.967 261.505 277.549 262.539 277.829 263.673C278.108 264.808 278.075 266 277.732 267.117Z" fill="#9C9C9C"/>
<path d="M242.899 244.262L251.246 253L235.785 269.079C234.985 269.941 233.968 270.552 232.85 270.842C231.732 271.132 230.558 271.091 229.462 270.721C228.495 270.365 227.64 269.741 226.991 268.916C226.341 268.09 225.922 267.096 225.779 266.04C225.555 264.955 225.601 263.828 225.91 262.765C226.22 261.702 226.784 260.739 227.549 259.964L242.899 244.262Z" fill="#9C9C9C"/>
<path d="M275.727 228.054L259.618 244.262L251.246 235.847L267.609 219.528C268.53 218.585 269.705 217.933 270.988 217.65C272.272 217.367 273.61 217.466 274.839 217.934C275.757 218.26 276.553 218.861 277.12 219.656C277.687 220.451 277.998 221.402 278.011 222.38C278.053 223.435 277.871 224.486 277.477 225.465C277.084 226.443 276.487 227.326 275.727 228.054Z" fill="#9C9C9C"/>
</g>
<g clip-path="url(#clip2_333_2)">
<path d="M-30.9014 86.1069L104.716 -6.50742C108.743 -9.25714 114.236 -8.22211 116.986 -4.19563C119.736 -0.169142 118.701 5.32405 114.674 8.07377L-20.9438 100.688L-30.9014 86.1069Z" fill="#D9D9D9"/>
<path d="M-39.3945 63.542L28.655 17.0705C32.6815 14.3208 38.1747 15.3558 40.9244 19.3823C43.6741 23.4088 42.6391 28.902 38.6126 31.6517L-29.4369 78.1232L-39.3945 63.542Z" fill="black"/>
<path d="M-24.0269 109.078L54.6442 55.3527C58.6707 52.603 64.1639 53.638 66.9136 57.6645C69.6634 61.691 68.6283 67.1842 64.6018 69.9339L-14.0693 123.659L-24.0269 109.078Z" fill="black"/>
<path d="M-16.6777 131.533L38.7847 93.6578C42.8112 90.908 48.3044 91.9431 51.0541 95.9696C53.8038 99.996 52.7688 105.489 48.7423 108.239L-6.72014 146.115L-16.6777 131.533Z" fill="#D9D9D9"/>
<path d="M54.5242 94.4504C51.7745 90.4239 52.8095 84.9307 56.836 82.181L77.6543 67.964C81.6808 65.2143 87.174 66.2493 89.9237 70.2758C92.6734 74.3023 91.6384 79.7955 87.6119 82.5452L66.7936 96.7622C62.7671 99.5119 57.2739 98.4769 54.5242 94.4504Z" fill="#D9D9D9"/>
<path d="M69.0603 56.0886C66.3106 52.0621 67.3457 46.5689 71.3721 43.8192L90.6201 30.6746C94.6466 27.9249 100.14 28.9599 102.889 32.9864C105.639 37.0129 104.604 42.5061 100.578 45.2558L81.3297 58.4004C77.3032 61.1501 71.8101 60.1151 69.0603 56.0886Z" fill="black"/>
</g>
<g clip-path="url(#clip3_333_2)">
<path d="M557.663 431.353L420.025 511.509C415.939 513.889 410.697 512.506 408.317 508.419C405.937 504.333 407.32 499.091 411.407 496.711L549.045 416.554L557.663 431.353Z" fill="#D9D9D9"/>
<path d="M564.309 453.772L495.246 493.993C491.159 496.373 485.917 494.989 483.538 490.903C481.158 486.816 482.541 481.574 486.628 479.195L555.691 438.974L564.309 453.772Z" fill="black"/>
<path d="M552.611 408.653L472.768 455.151C468.682 457.531 463.44 456.148 461.06 452.061C458.68 447.975 460.064 442.733 464.15 440.353L543.993 393.854L552.611 408.653Z" fill="black"/>
<path d="M547.064 386.418L490.775 419.199C486.689 421.579 481.447 420.196 479.067 416.109C476.687 412.023 478.071 406.781 482.157 404.401L538.446 371.62L547.064 386.418Z" fill="#D9D9D9"/>
<path d="M475.605 417.337C477.985 421.424 476.601 426.666 472.515 429.046L451.386 441.35C447.3 443.73 442.058 442.347 439.678 438.26C437.298 434.174 438.682 428.932 442.768 426.552L463.897 414.247C467.983 411.867 473.225 413.251 475.605 417.337Z" fill="#D9D9D9"/>
<path d="M458.874 453.436C461.254 457.523 459.87 462.765 455.784 465.145L436.249 476.521C432.163 478.901 426.921 477.517 424.541 473.431C422.161 469.345 423.545 464.103 427.631 461.723L447.166 450.346C451.252 447.966 456.494 449.35 458.874 453.436Z" fill="black"/>
</g>
</g>
<defs>
<clipPath id="clip0_333_2">
<rect width="500" height="500" rx="40" fill="white"/>
</clipPath>
<clipPath id="clip1_333_2">
<rect width="355" height="355" fill="white" transform="translate(72 72)"/>
</clipPath>
<clipPath id="clip2_333_2">
<rect width="163" height="149" fill="white"/>
</clipPath>
<clipPath id="clip3_333_2">
<rect width="176" height="152" fill="white" transform="translate(353 352)"/>
</clipPath>
</defs>
</svg>
