<svg width="24" height="24" viewBox="0 0 24 24" fill="none" xmlns="http://www.w3.org/2000/svg">
<g clip-path="url(#clip0_494_2)">
<rect width="24" height="24" rx="3" fill="white"/>
<path d="M11.5 7C10.61 7 9.73996 7.26392 8.99994 7.75839C8.25991 8.25285 7.68314 8.95566 7.34254 9.77792C7.00195 10.6002 6.91283 11.505 7.08647 12.3779C7.2601 13.2508 7.68868 14.0526 8.31802 14.682C8.94736 15.3113 9.74918 15.7399 10.6221 15.9135C11.495 16.0872 12.3998 15.998 13.2221 15.6575C14.0443 15.3169 14.7471 14.7401 15.2416 14.0001C15.7361 13.26 16 12.39 16 11.5C16 10.3065 15.5259 9.16193 14.682 8.31802C13.8381 7.47411 12.6935 7 11.5 7ZM11.4632 14.3752C10.8885 14.3754 10.3267 14.2051 9.84887 13.886C9.37099 13.5668 8.9985 13.1131 8.77848 12.5823C8.55847 12.0514 8.50083 11.4672 8.61285 10.9036C8.72487 10.34 9.00151 9.82223 9.4078 9.41584C9.81408 9.00945 10.3318 8.73267 10.8954 8.62051C11.4589 8.50835 12.0431 8.56584 12.5741 8.78571C13.105 9.00558 13.5588 9.37796 13.878 9.85576C14.1973 10.3335 14.3677 10.8953 14.3677 11.4699C14.3678 11.8515 14.2928 12.2293 14.1469 12.5818C14.001 12.9343 13.787 13.2547 13.5173 13.5245C13.2476 13.7944 12.9274 14.0085 12.5749 14.1546C12.2225 14.3007 11.8447 14.3759 11.4632 14.376V14.3752Z" fill="#333333"/>
<path d="M11.5 9C11.0055 9 10.5222 9.14662 10.1111 9.42133C9.69995 9.69603 9.37952 10.0865 9.1903 10.5433C9.00108 11.0001 8.95157 11.5028 9.04804 11.9877C9.1445 12.4727 9.3826 12.9181 9.73223 13.2678C10.0819 13.6174 10.5273 13.8555 11.0123 13.952C11.4972 14.0484 11.9999 13.9989 12.4567 13.8097C12.9135 13.6205 13.304 13.3 13.5787 12.8889C13.8534 12.4778 14 11.9945 14 11.5C14 10.837 13.7366 10.2011 13.2678 9.73223C12.7989 9.26339 12.163 9 11.5 9ZM10.5279 12.9749C10.4237 12.9749 10.3219 12.944 10.2353 12.8861C10.1487 12.8282 10.0812 12.746 10.0414 12.6497C10.0016 12.5535 9.99119 12.4476 10.0116 12.3454C10.0319 12.2433 10.0821 12.1495 10.1559 12.0759C10.2296 12.0023 10.3234 11.9522 10.4256 11.9319C10.5278 11.9117 10.6337 11.9222 10.7299 11.9622C10.8261 12.0021 10.9082 12.0697 10.966 12.1564C11.0238 12.2431 11.0545 12.3449 11.0544 12.4491C11.0545 12.5183 11.0409 12.5868 11.0145 12.6508C10.9881 12.7147 10.9493 12.7729 10.9004 12.8218C10.8515 12.8708 10.7935 12.9096 10.7295 12.9361C10.6656 12.9626 10.5971 12.9763 10.5279 12.9763V12.9749ZM10.5279 11.0732C10.4237 11.0732 10.3219 11.0423 10.2353 10.9844C10.1487 10.9266 10.0812 10.8443 10.0414 10.748C10.0016 10.6518 9.99119 10.5459 10.0116 10.4438C10.0319 10.3416 10.0821 10.2478 10.1559 10.1742C10.2296 10.1006 10.3234 10.0505 10.4256 10.0303C10.5278 10.01 10.6337 10.0205 10.7299 10.0605C10.8261 10.1005 10.9082 10.168 10.966 10.2547C11.0238 10.3414 11.0545 10.4433 11.0544 10.5474C11.0546 10.6166 11.0411 10.6852 11.0147 10.7492C10.9883 10.8132 10.9496 10.8714 10.9006 10.9204C10.8517 10.9693 10.7936 11.0082 10.7296 11.0347C10.6657 11.0611 10.5971 11.0747 10.5279 11.0746V11.0732ZM12.4589 12.9749C12.3547 12.975 12.2528 12.9443 12.1661 12.8865C12.0794 12.8287 12.0118 12.7464 11.9719 12.6502C11.9319 12.554 11.9215 12.448 11.9417 12.3459C11.962 12.2437 12.0122 12.1498 12.0859 12.0761C12.1595 12.0024 12.2534 11.9523 12.3556 11.932C12.4578 11.9117 12.5637 11.9222 12.66 11.9621C12.7562 12.002 12.8384 12.0696 12.8962 12.1563C12.954 12.243 12.9848 12.3449 12.9847 12.4491C12.9848 12.5182 12.9712 12.5867 12.9448 12.6506C12.9185 12.7145 12.8798 12.7726 12.8309 12.8216C12.7821 12.8705 12.7241 12.9094 12.6603 12.9359C12.5964 12.9625 12.528 12.9762 12.4589 12.9763V12.9749ZM12.4589 11.0732C12.3547 11.0734 12.2528 11.0426 12.1661 10.9848C12.0794 10.927 12.0118 10.8448 11.9719 10.7485C11.9319 10.6523 11.9215 10.5464 11.9417 10.4442C11.962 10.342 12.0122 10.2481 12.0859 10.1744C12.1595 10.1008 12.2534 10.0506 12.3556 10.0303C12.4578 10.01 12.5637 10.0205 12.66 10.0604C12.7562 10.1004 12.8384 10.168 12.8962 10.2546C12.954 10.3413 12.9848 10.4432 12.9847 10.5474C12.9848 10.6166 12.9714 10.6851 12.945 10.7491C12.9187 10.813 12.88 10.8711 12.8311 10.9201C12.7823 10.9691 12.7243 11.0079 12.6604 11.0345C12.5965 11.061 12.528 11.0746 12.4589 11.0746V11.0732Z" fill="#333333"/>
<path d="M3.01701 11.424L7 11V12L3.01701 11.51C3.0125 11.51 3.00817 11.5055 3.00498 11.4974C3.00179 11.4893 3 11.4784 3 11.467C3 11.4556 3.00179 11.4447 3.00498 11.4366C3.00817 11.4285 3.0125 11.424 3.01701 11.424Z" fill="#333333"/>
<path d="M19.9972 11.4976C20.0023 11.0402 19.0055 11.0109 19.0055 11.0109L16 11V12H19.1104C20.0962 12 19.9972 11.4976 19.9972 11.4976ZM18.0003 11.8207C17.2519 11.8207 16.6452 11.6748 16.6452 11.4942C16.6452 11.3136 17.2519 11.1677 18.0003 11.1677C18.7487 11.1677 19.3545 11.3142 19.3545 11.4942C19.3545 11.6742 18.747 11.8207 17.9995 11.8207H18.0003Z" fill="#333333"/>
<path d="M25.5376 20.3973L17.9462 24.8184C17.7208 24.9496 17.4316 24.8733 17.3004 24.6479V24.6479C17.1691 24.4226 17.2454 24.1334 17.4708 24.0022L25.0623 19.5811L25.5376 20.3973Z" fill="#D9D9D9"/>
<path d="M25.9043 21.6338L22.0951 23.8522C21.8697 23.9834 21.5806 23.9071 21.4493 23.6817V23.6817C21.3181 23.4563 21.3944 23.1672 21.6198 23.0359L25.429 20.8176L25.9043 21.6338Z" fill="black"/>
<path d="M25.2588 19.1453L20.855 21.7099C20.6297 21.8411 20.3405 21.7648 20.2093 21.5394V21.5394C20.078 21.3141 20.1543 21.0249 20.3797 20.8937L24.7835 18.3291L25.2588 19.1453Z" fill="black"/>
<path d="M24.9526 17.9189L21.848 19.727C21.6226 19.8582 21.3335 19.7819 21.2023 19.5565V19.5565C21.071 19.3312 21.1473 19.042 21.3727 18.9108L24.4773 17.1027L24.9526 17.9189Z" fill="#D9D9D9"/>
<path d="M21.0114 19.6242C21.1426 19.8496 21.0663 20.1388 20.8409 20.27L19.6756 20.9487C19.4502 21.0799 19.1611 21.0036 19.0298 20.7782V20.7782C18.8985 20.5529 18.9749 20.2637 19.2002 20.1325L20.3656 19.4538C20.591 19.3225 20.8801 19.3989 21.0114 19.6242V19.6242Z" fill="#D9D9D9"/>
<path d="M20.089 21.6152C20.2203 21.8406 20.1439 22.1297 19.9186 22.261L18.8411 22.8885C18.6157 23.0197 18.3266 22.9434 18.1954 22.718V22.718C18.0641 22.4926 18.1404 22.2035 18.3658 22.0722L19.4432 21.4448C19.6686 21.3135 19.9577 21.3898 20.089 21.6152V21.6152Z" fill="black"/>
<path d="M-1.24951 4.32715L4.93118 0.106313C5.11468 -0.0190034 5.36503 0.0281675 5.49035 0.211672V0.211672C5.61566 0.395176 5.56849 0.645524 5.38499 0.770841L-0.795701 4.99168L-1.24951 4.32715Z" fill="#D9D9D9"/>
<path d="M-1.63672 3.29883L1.46459 1.18092C1.6481 1.05561 1.89844 1.10278 2.02376 1.28628V1.28628C2.14908 1.46978 2.10191 1.72013 1.9184 1.84545L-1.18291 3.96336L-1.63672 3.29883Z" fill="black"/>
<path d="M-0.936523 5.37402L2.64886 2.92554C2.83236 2.80023 3.08271 2.8474 3.20803 3.0309V3.0309C3.33334 3.2144 3.28617 3.46475 3.10267 3.59007L-0.482713 6.03855L-0.936523 5.37402Z" fill="black"/>
<path d="M-0.601074 6.39734L1.92659 4.67118C2.11009 4.54586 2.36044 4.59303 2.48576 4.77654V4.77654C2.61107 4.96004 2.5639 5.21039 2.3804 5.33571L-0.147264 7.06187L-0.601074 6.39734Z" fill="#D9D9D9"/>
<path d="M2.6439 4.70739C2.51858 4.52388 2.56575 4.27353 2.74926 4.14822L3.69804 3.50029C3.88154 3.37497 4.13189 3.42214 4.25721 3.60565V3.60565C4.38252 3.78915 4.33535 4.0395 4.15185 4.16482L3.20307 4.81274C3.01956 4.93806 2.76921 4.89089 2.6439 4.70739V4.70739Z" fill="#D9D9D9"/>
<path d="M3.3065 2.95909C3.18118 2.77559 3.22835 2.52524 3.41185 2.39993L4.28906 1.80087C4.47257 1.67556 4.72292 1.72273 4.84823 1.90623V1.90623C4.97355 2.08974 4.92638 2.34008 4.74288 2.4654L3.86566 3.06445C3.68216 3.18977 3.43181 3.1426 3.3065 2.95909V2.95909Z" fill="black"/>
</g>
<defs>
<clipPath id="clip0_494_2">
<rect width="24" height="24" rx="3" fill="white"/>
</clipPath>
</defs>
</svg>
